<svg width="512" height="512" xmlns="http://www.w3.org/2000/svg">
 <defs>
  <radialGradient spreadMethod="pad" id="svg_25">
   <stop stop-color="#e30058" offset="0"/>
   <stop stop-color="#ffc100" offset="1"/>
  </radialGradient>
  <radialGradient r="0.5" cy="0.5" cx="0.5" spreadMethod="pad" id="svg_26">
   <stop stop-color="#e30058" offset="0"/>
   <stop stop-color="#ffc100" offset="1"/>
  </radialGradient>
 </defs>
 <g>
  <title>background</title>
  <rect fill="none" id="canvas_background" height="50" width="50" y="-1" x="-1"/>
 </g>
 <g>
  <title>Layer 1</title>
  <g id="svg_1">
   <g id="svg_2">
    <path fill="url(#svg_25)" id="svg_3" d="m287.836,316.548c0,-8.016 -3.122,-15.553 -8.79,-21.221l-62.373,-62.375c-5.669,-5.669 -13.205,-8.789 -21.222,-8.789s-15.552,3.122 -21.221,8.789l-37.586,37.585l-38.428,-0.802c-4.144,-0.091 -8.063,1.506 -10.964,4.408l-59.528,59.529c-5.882,5.882 -5.882,15.417 0,21.299l19.564,19.564l-42.876,42.876c-5.882,5.882 -5.882,15.417 0,21.299l68.879,68.879c2.824,2.824 6.655,4.411 10.649,4.411c3.994,0 7.826,-1.587 10.649,-4.412l42.877,-42.877l19.563,19.563c2.941,2.941 6.795,4.412 10.649,4.412c3.854,0 7.709,-1.471 10.649,-4.412l59.529,-59.529c2.902,-2.902 4.494,-6.861 4.409,-10.963l-0.803,-38.429l37.585,-37.584c5.667,-5.669 8.789,-13.205 8.789,-21.221zm-203.896,159.091l-47.58,-47.58l64.221,-64.22l47.58,47.58l-64.221,64.22zm131.682,-117.044c-2.902,2.902 -4.494,6.861 -4.409,10.963l0.803,38.429l-44.338,44.337l-8.914,-8.914l21.344,-21.344c5.882,-5.882 5.882,-15.417 0,-21.299l-68.879,-68.879c-2.824,-2.824 -6.655,-4.412 -10.649,-4.412c-3.994,0 -7.826,1.587 -10.649,4.412l-21.344,21.346l-8.914,-8.914l44.337,-44.337l38.428,0.802c4.139,0.103 8.064,-1.506 10.964,-4.408l42.05,-42.048l62.217,62.218l-42.047,42.048z"/>
   </g>
  </g>
  <g id="svg_4">
   <g id="svg_5">
    <path fill="url(#svg_26)" id="svg_6" d="m226.749,305.002l-19.757,-19.757c-5.881,-5.882 -15.417,-5.882 -21.299,0c-5.882,5.882 -5.882,15.417 0.001,21.299l19.757,19.757c2.941,2.941 6.795,4.412 10.649,4.412c3.854,0 7.709,-1.47 10.649,-4.412c5.881,-5.882 5.881,-15.417 0,-21.299z"/>
   </g>
  </g>
  <g id="svg_7">
   <g id="svg_8">
    <path fill="url(#svg_26)" id="svg_9" d="m507.588,73.291l-68.878,-68.879c-2.825,-2.825 -6.655,-4.412 -10.65,-4.412s-7.826,1.587 -10.649,4.412l-45.339,45.339l-9.073,-9.073c-5.881,-5.882 -15.417,-5.882 -21.299,0l-62.686,62.685c-1.343,1.343 -2.421,2.929 -3.174,4.672l-30.048,69.491c-2.451,5.669 -1.193,12.259 3.174,16.627l68.875,68.874c2.884,2.884 6.736,4.412 10.653,4.412c2.014,0 4.046,-0.405 5.972,-1.237l69.497,-30.043c1.744,-0.754 3.329,-1.831 4.673,-3.175l62.685,-62.685c5.882,-5.882 5.882,-15.417 0,-21.299l-9.073,-9.073l45.339,-45.339c5.883,-5.88 5.883,-15.416 0.001,-21.297zm-118.216,136.361l-57.466,24.842l-54.406,-54.405l24.846,-57.461l50.003,-50.002l87.024,87.023l-50.001,50.003zm51.579,-91.023l-47.58,-47.58l34.69,-34.69l47.58,47.58l-34.69,34.69z"/>
   </g>
  </g>
  <g id="svg_10"/>
  <g id="svg_11"/>
  <g id="svg_12"/>
  <g id="svg_13"/>
  <g id="svg_14"/>
  <g id="svg_15"/>
  <g id="svg_16"/>
  <g id="svg_17"/>
  <g id="svg_18"/>
  <g id="svg_19"/>
  <g id="svg_20"/>
  <g id="svg_21"/>
  <g id="svg_22"/>
  <g id="svg_23"/>
  <g id="svg_24"/>
 </g>
</svg>