<svg id="Layer_5" enable-background="new 0 0 64 64" height="512" viewBox="0 0 64 64" width="512" xmlns="http://www.w3.org/2000/svg" xmlns:xlink="http://www.w3.org/1999/xlink"><linearGradient id="SVGID_1_" gradientUnits="userSpaceOnUse" x1="32" x2="32" y1="63" y2="1"><stop offset="0" stop-color="#e30058"/><stop offset="1" stop-color="#ffc100"/></linearGradient><path d="m32 59c3.309 0 6-2.691 6-6 0-.408-.042-.815-.123-1.213l-.159-.771-.787-.026c-1.082-.037-1.931-.911-1.931-1.99 0-.126.017-.248.039-.367l.142-.77-.713-.322c-.795-.359-1.625-.541-2.468-.541-3.309 0-6 2.691-6 6s2.691 6 6 6zm0-10c.337 0 .672.045 1.002.133.059 1.806 1.301 3.302 2.996 3.733.001.044.002.089.002.134 0 2.206-1.794 4-4 4s-4-1.794-4-4 1.794-4 4-4zm-28-11h2v2h-2v2h5.099c1.61 3.684 4.087 6.925 7.226 9.457-.205.488-.325 1.012-.325 1.543 0 .859.284 1.712.8 2.399 3.57 4.76 9.252 7.601 15.2 7.601s11.63-2.841 15.2-7.601c.516-.687.8-1.54.8-2.399 0-.531-.12-1.055-.325-1.543 3.138-2.532 5.616-5.773 7.226-9.457h5.099v-2h-2v-2h2c1.654 0 3-1.346 3-3v-8c0-1.654-1.346-3-3-3h-4.337c-1.949-5.777-5.885-10.587-11.193-13.649-1.583-5.396-6.569-9.351-12.47-9.351s-10.887 3.955-12.469 9.351c-5.308 3.062-9.245 7.872-11.194 13.649h-4.337c-1.654 0-3 1.346-3 3v8c0 1.654 1.346 3 3 3zm-1-3v-1h14v1c0 .552-.449 1-1 1h-12c-.551 0-1-.448-1-1zm5 3h4v2h-4zm10.4 16.2c-.262-.35-.4-.765-.4-1.2s.138-.851.4-1.2c1.506-2.008 3.435-3.628 5.609-4.786-1.256 1.671-2.009 3.74-2.009 5.986s.753 4.315 2.009 5.986c-2.174-1.158-4.103-2.778-5.609-4.786zm21.6-1.2c0 4.411-3.589 8-8 8s-8-3.589-8-8 3.589-8 8-8 8 3.589 8 8zm5.6 1.2c-1.506 2.008-3.435 3.628-5.609 4.786 1.256-1.671 2.009-3.74 2.009-5.986s-.753-4.315-2.009-5.986c2.173 1.158 4.103 2.778 5.609 4.786.262.35.4.765.4 1.2s-.138.851-.4 1.2zm10.4-14.2h-4v-2h4zm4-4h-12c-.551 0-1-.448-1-1v-1h14v1c0 .552-.449 1-1 1zm1-9v5h-14v-5c0-.552.449-1 1-1h12c.551 0 1 .448 1 1zm-29-24c1.075 0 2.22 1.527 3.009 4h-6.018c.789-2.473 1.934-4 3.009-4zm3.519 6c.244 1.209.408 2.553.46 4h-7.958c.052-1.447.217-2.791.46-4zm7.43 4h-4.971c-.046-1.419-.184-2.763-.409-4h4.217c.626 1.221 1.034 2.57 1.163 4zm-6.97 2c-.052 1.447-.217 2.791-.46 4h-7.038c-.244-1.209-.408-2.553-.46-4zm-9.957-2h-4.971c.13-1.43.537-2.779 1.164-4h4.217c-.226 1.237-.365 2.581-.41 4zm0 2c.046 1.419.184 2.763.409 4h-4.217c-.626-1.221-1.034-2.57-1.164-4zm.873 6c.368 1.295.838 2.422 1.391 3.341-1.874-.675-3.518-1.834-4.764-3.341zm2.096 0h6.018c-.789 2.473-1.935 4-3.009 4s-2.22-1.527-3.009-4zm8.114 0h3.374c-1.246 1.507-2.891 2.666-4.764 3.341.552-.919 1.022-2.046 1.39-3.341zm4.681-2h-4.217c.225-1.237.364-2.581.409-4h4.971c-.129 1.43-.537 2.779-1.163 4zm-1.307-12h-3.374c-.368-1.295-.838-2.422-1.391-3.341 1.874.675 3.518 1.834 4.765 3.341zm-12.193-3.341c-.553.919-1.023 2.046-1.391 3.341h-3.374c1.247-1.507 2.891-2.666 4.765-3.341zm-9.235 9.341c-.026.331-.051.662-.051 1 0 7.168 5.832 13 13 13s13-5.832 13-13c0-.338-.025-.669-.051-1 3.912 2.681 6.935 6.568 8.59 11h-5.539c-1.654 0-3 1.346-3 3v8c0 1.654 1.346 3 3 3h2v2h-2v2h4.713c-1.455 3.01-3.56 5.664-6.158 7.792-3.587-4.27-8.952-6.792-14.555-6.792s-10.968 2.522-14.555 6.792c-2.598-2.128-4.703-4.782-6.158-7.792h4.713v-2h-2v-2h2c1.654 0 3-1.346 3-3v-8c0-1.654-1.346-3-3-3h-5.539c1.654-4.432 4.677-8.319 8.59-11zm-15.051 13h12c.551 0 1 .448 1 1v5h-14v-5c0-.552.449-1 1-1zm37 7h-2v-2h2zm-16 0h-2v-2h2zm12 0h-2v-2h2zm-8 0h-2v-2h2zm4 0h-2v-2h2zm8 4h-18v-2h18zm0 4h-18v-2h18z" fill="url(#SVGID_1_)"/></svg>