<svg width="505.607" height="505.607" xmlns="http://www.w3.org/2000/svg">
 <g>
  <title>background</title>
  <rect fill="none" id="canvas_background" height="507.607" width="507.607" y="-1" x="-1"/>
 </g>
 <defs>
  <linearGradient id="svg_1" x1="0.0129" x2="-0.65461" y1="-0.78974" y2="-1.18479">
   <stop offset="0" stop-color="#e30058"/>
   <stop offset="1" stop-color="#ffc100"/>
  </linearGradient>
  <linearGradient id="svg_4" x1="0.873778" x2="0.126432" y1="0.764469" y2="0.128654">
   <stop offset="0" stop-color="#e30058"/>
   <stop offset="1" stop-color="#ffc100"/>
  </linearGradient>
 </defs>
 <g>
  <title>Layer 1</title>
  <path id="svg_1" d="m138.327,267.173c16.867,-8.495 27.996,-21.928 27.996,-41.345c-0.185,-20.951 -17.428,-38.008 -38.379,-38.008c-37.015,0 -49.661,49.318 -27.44,49.318c6.118,0 10.94,-4.821 10.94,-10.94c0,-9.085 7.416,-16.501 16.501,-16.501s16.501,7.416 16.501,16.501l0,1.855c0,2.966 -1.483,12.051 -15.945,19.467c-38.564,19.282 -38.935,57.476 -38.935,59.144c0,6.118 4.82,10.938 10.938,10.938l54.88,0c6.119,0 10.94,-4.82 10.94,-10.938c0,-6.119 -4.82,-10.94 -10.94,-10.94l-41.901,0c2.781,-8.899 9.456,-20.95 24.844,-28.551z" fill="url(#svg_1)"/>
  <path id="svg_1" d="m240.477,317.603c6.118,0 10.938,-4.82 10.938,-10.753l0,-16.316l5.377,0c5.933,0 10.753,-4.821 10.753,-10.754s-4.82,-10.938 -10.753,-10.938l-5.377,0l0,-70.268c0,-5.933 -4.82,-10.754 -10.938,-10.754l-5.377,0c-3.893,0 -7.601,2.225 -9.455,5.748c-47.306,88.725 -44.497,82.274 -44.497,86.213c0,6.569 5.498,10.754 10.753,10.754l37.823,0l0,16.316c0,5.931 4.82,10.752 10.753,10.752zm-30.592,-48.762l19.839,-37.081l0,37.081l-19.839,0z" fill="url(#svg_1)"/>
  <path id="svg_1" d="m314.816,187.819c-5.005,0 -9.642,3.523 -10.568,8.714l-21.693,108.091c-1.226,4.914 2.064,11.639 8.529,12.793c4.924,1.23 11.446,-2.024 12.607,-8.529c23.437,-116.78 21.878,-108.395 21.878,-110.13c0,-5.806 -4.391,-10.939 -10.753,-10.939z" fill="url(#svg_1)"/>
  <path id="svg_1" d="m340.396,306.849c0,11.42 15.389,14.831 20.395,4.82l54.137,-108.276c3.424,-6.842 -1.459,-15.575 -9.64,-15.575l-54.139,0c-5.933,0 -10.753,4.821 -10.753,10.754c0,6.118 4.82,10.938 10.753,10.938l36.525,0c-50.415,101.035 -47.278,93.639 -47.278,97.339z" fill="url(#svg_1)"/>
  <path id="svg_1" d="m488.419,411.575l-41.445,2.844c37.551,-45.11 58.541,-102.254 58.541,-161.708c-0.001,-139.667 -113.027,-252.711 -252.712,-252.711c-139.666,0 -252.711,113.026 -252.711,252.711c0,192.041 204.733,311.464 370.867,223.441c7.809,-4.137 10.785,-13.821 6.647,-21.629c-4.137,-7.809 -13.821,-10.785 -21.629,-6.647c-144.213,76.41 -323.885,-26.662 -323.885,-195.165c0,-121.981 98.714,-220.711 220.711,-220.711c121.981,0 220.711,98.714 220.711,220.711c0,53.374 -19.364,104.623 -53.905,144.513l-3.33,-48.523c-0.605,-8.816 -8.243,-15.461 -17.058,-14.867c-8.816,0.605 -15.472,8.242 -14.867,17.058l5.728,83.469c0.58,8.444 7.608,14.905 15.946,14.905c0.863,0 -5.119,0.389 84.581,-5.766c8.816,-0.605 15.472,-8.242 14.867,-17.058s-8.24,-15.46 -17.057,-14.867z" fill="url(#svg_4)"/>
 </g>
</svg>