<svg width="64" height="64" xmlns="http://www.w3.org/2000/svg">
 <defs>
  <linearGradient id="SVGID_1_" x1="0.5" x2="0.5" y1="1" y2="0">
   <stop offset="0" stop-color="#e30058"/>
   <stop offset="1" stop-color="#ffc100"/>
  </linearGradient>
 </defs>
 <g>
  <title>background</title>
  <rect x="-1" y="-1" width="66" height="66" id="canvas_background" fill="none"/>
 </g>
 <g>
  <title>Layer 1</title>
  <path d="m42,1c-7.878,0 -15.114,4.469 -18.689,11.444c-1.059,-0.28 -2.165,-0.444 -3.311,-0.444c-7.168,0 -13,5.832 -13,13l0,6c0,2.206 1.794,4 4,4l1.739,0c0.833,1.47 1.937,2.78 3.261,3.847l0,1.242c0,0.773 -0.453,1.485 -1.154,1.812l-7.498,3.499c-3.856,1.8 -6.348,5.713 -6.348,9.969l0,7.631l38,0l0,-7.631c0,-4.256 -2.492,-8.168 -6.348,-9.968l-7.498,-3.499c-0.701,-0.327 -1.154,-1.039 -1.154,-1.813l0,-1.242c0.959,-0.773 1.803,-1.673 2.513,-2.669c3.977,4.35 9.547,6.822 15.487,6.822c11.58,0 21,-9.42 21,-21s-9.42,-21 -21,-21zm-22,13c6.065,0 11,4.935 11,11l0,2.556c-0.591,-0.344 -1.268,-0.556 -2,-0.556l0,-2l-4.169,0c-3.633,0 -7.201,-0.988 -10.316,-2.857l-0.818,-0.491l-2.697,4.045l0,1.303c-0.732,0 -1.409,0.212 -2,0.556l0,-2.556c0,-6.065 4.935,-11 11,-11zm10.712,-1.873l2.802,2.802l1.414,-1.414l-2.804,-2.804c2.442,-2.133 5.549,-3.452 8.876,-3.674l0,3.963l2,0l0,-3.949c3.383,0.225 6.457,1.569 8.861,3.674l-2.79,2.79l1.414,1.414l2.79,-2.79c2.105,2.404 3.45,5.478 3.674,8.861l-3.949,0l0,2l3.949,0c-0.225,3.383 -1.569,6.457 -3.674,8.861l-2.79,-2.79l-1.414,1.414l2.79,2.79c-2.404,2.105 -5.478,3.45 -8.861,3.674l0,-3.949l-2,0l0,3.951c-3.26,-0.214 -6.313,-1.463 -8.782,-3.597c0.486,-0.662 0.782,-1.471 0.782,-2.354l0,-6c0,-3.871 -1.709,-7.341 -4.402,-9.725c0.577,-1.149 1.288,-2.205 2.114,-3.148zm-1.733,16.873l0.021,0c1.103,0 2,0.897 2,2s-0.897,2 -2,2l-0.817,0c0.464,-1.269 0.738,-2.614 0.796,-4zm-17.979,4c-1.103,0 -2,-0.897 -2,-2s0.897,-2 2,-2l0.021,0c0.057,1.386 0.331,2.731 0.796,4l-0.817,0zm4.691,10.714c0.136,-0.064 0.264,-0.141 0.391,-0.218l2.504,2.504l-3.005,3.005l-1.055,-4.747l1.165,-0.544zm4.781,4.172l1.414,13.114l-3.773,0l1.414,-13.114l0.473,-0.472l0.472,0.472zm-17.472,7.483c0,-3.482 2.039,-6.683 5.194,-8.156l4.476,-2.089l1.749,7.871l2.854,-2.854l-1.171,10.859l-7.102,0l0,-6l-2,0l0,6l-4,0l0,-5.631zm34,0l0,5.631l-4,0l0,-6l-2,0l0,6l-7.102,0l-1.171,-10.859l2.854,2.854l1.749,-7.871l4.476,2.089c3.155,1.473 5.194,4.674 5.194,8.156zm-11.526,-11.111l-1.055,4.747l-3.005,-3.005l2.504,-2.504c0.127,0.078 0.254,0.154 0.391,0.218l1.165,0.544zm-2.944,-2.202l-2.53,2.53l-2.53,-2.53c0.322,-0.567 0.51,-1.21 0.524,-1.882c0.53,0.288 1.08,0.547 1.655,0.763l0.351,0.131l0.351,-0.131c0.575,-0.216 1.125,-0.475 1.655,-0.763c0.015,0.672 0.202,1.315 0.524,1.882zm-2.53,-3.131c-4.203,-1.74 -7,-5.899 -7,-10.469l0,-2.153l1.314,-1.972c3.225,1.749 6.84,2.669 10.517,2.669l2.169,0l0,1.456c0,4.57 -2.797,8.73 -7,10.469zm22,2.075c-5.294,0 -10.261,-2.173 -13.848,-6l0.848,0c0.591,0 1.148,-0.137 1.653,-0.368c3.124,2.812 7.112,4.368 11.347,4.368c9.374,0 17,-7.626 17,-17s-7.626,-17 -17,-17c-6.323,0 -12.096,3.514 -15.027,9.047c-0.558,-0.357 -1.143,-0.675 -1.755,-0.945c3.278,-6.167 9.749,-10.102 16.782,-10.102c10.477,0 19,8.523 19,19s-8.523,19 -19,19zm5,-18l-6,0l0,-8l2,0l0,6l4,0l0,2z" fill="url(#SVGID_1_)" id="svg_1"/>
 </g>
</svg>